<svg width="24" height="24" viewBox="0 0 24 24" fill="none" xmlns="http://www.w3.org/2000/svg">
<path d="M14.91 6.70999C14.8175 6.61728 14.7076 6.54373 14.5866 6.49355C14.4656 6.44337 14.336 6.41754 14.205 6.41754C14.074 6.41754 13.9443 6.44337 13.8234 6.49355C13.7024 6.54373 13.5925 6.61728 13.5 6.70999L8.91 11.3C8.81729 11.3925 8.74375 11.5024 8.69357 11.6234C8.64338 11.7443 8.61755 11.874 8.61755 12.005C8.61755 12.136 8.64338 12.2656 8.69357 12.3866C8.74375 12.5076 8.81729 12.6175 8.91 12.71L13.5 17.3C13.5926 17.3926 13.7025 17.466 13.8235 17.5161C13.9444 17.5662 14.0741 17.592 14.205 17.592C14.3359 17.592 14.4656 17.5662 14.5865 17.5161C14.7075 17.466 14.8174 17.3926 14.91 17.3C15.0026 17.2074 15.076 17.0975 15.1261 16.9765C15.1762 16.8556 15.202 16.7259 15.202 16.595C15.202 16.4641 15.1762 16.3344 15.1261 16.2134C15.076 16.0925 15.0026 15.9826 14.91 15.89L11.03 12L14.91 8.11999C15.29 7.72999 15.29 7.08999 14.91 6.70999Z" fill="black"/>
</svg>
