<svg width="24" height="24" viewBox="0 0 24 24" fill="none" xmlns="http://www.w3.org/2000/svg">
<path d="M6.554 3.96469L16.4705 8.21419L12.5 9.91519L2.6405 5.68969C2.8625 5.46319 3.134 5.28019 3.443 5.16169L6.554 3.96469ZM8.561 3.19369L10.886 2.29969C11.9254 1.9001 13.0761 1.9001 14.1155 2.29969L21.5585 5.16169C21.866 5.28169 22.1375 5.46169 22.3595 5.68969L18.3755 7.39669L8.561 3.19369ZM22.991 7.05169L13.25 11.2262V22.4012C13.545 22.3512 13.8335 22.2722 14.1155 22.1642L21.5585 19.3007C21.9828 19.1373 22.3477 18.8492 22.605 18.4743C22.8623 18.0994 23.0001 17.6554 23 17.2007V7.26169C23 7.19169 22.9965 7.12169 22.9895 7.05169M11.75 22.4012V11.2262L2.0105 7.05169C2.00455 7.12155 2.00105 7.19159 2 7.26169V17.2007C2.00006 17.6556 2.13799 18.0997 2.3956 18.4746C2.6532 18.8495 3.01839 19.1375 3.443 19.3007L10.8845 22.1642C11.1665 22.2722 11.455 22.3512 11.75 22.4012Z" fill="#F4FFFE"/>
</svg>
