<svg width="34" height="34" viewBox="0 0 34 34" fill="none" xmlns="http://www.w3.org/2000/svg">
<path fill-rule="evenodd" clip-rule="evenodd" d="M17.3334 0C8.12842 0 0.666748 7.46167 0.666748 16.6667C0.666748 25.8717 8.12842 33.3333 17.3334 33.3333C26.5384 33.3333 34.0001 25.8717 34.0001 16.6667C34.0001 7.46167 26.5384 0 17.3334 0ZM11.5001 12.5C11.5001 11.734 11.651 10.9754 11.9441 10.2677C12.2373 9.55995 12.667 8.91688 13.2086 8.37521C13.7503 7.83353 14.3934 7.40386 15.1011 7.1107C15.8088 6.81755 16.5674 6.66667 17.3334 6.66667C18.0995 6.66667 18.858 6.81755 19.5657 7.1107C20.2735 7.40386 20.9165 7.83353 21.4582 8.37521C21.9999 8.91688 22.4296 9.55995 22.7227 10.2677C23.0159 10.9754 23.1667 11.734 23.1667 12.5C23.1667 14.0471 22.5522 15.5308 21.4582 16.6248C20.3642 17.7188 18.8805 18.3333 17.3334 18.3333C15.7863 18.3333 14.3026 17.7188 13.2086 16.6248C12.1147 15.5308 11.5001 14.0471 11.5001 12.5ZM27.7634 24.9733C26.5154 26.5422 24.9293 27.8091 23.1233 28.6795C21.3173 29.5499 19.3382 30.0013 17.3334 30C15.3287 30.0013 13.3495 29.5499 11.5435 28.6795C9.73757 27.8091 8.15143 26.5422 6.90341 24.9733C9.60508 23.035 13.2917 21.6667 17.3334 21.6667C21.3751 21.6667 25.0617 23.035 27.7634 24.9733Z" fill="#121212"/>
</svg>
