<svg width="16" height="16" viewBox="0 0 16 16" fill="none" xmlns="http://www.w3.org/2000/svg">
<path d="M15.2536 14.0706L12.4212 11.2465C13.335 10.0823 13.8309 8.64459 13.829 7.16452C13.829 5.8464 13.4382 4.55789 12.7059 3.46191C11.9736 2.36594 10.9327 1.51173 9.71492 1.00731C8.49714 0.502888 7.15713 0.370908 5.86434 0.62806C4.57155 0.885212 3.38404 1.51995 2.452 2.452C1.51995 3.38404 0.885212 4.57155 0.62806 5.86434C0.370908 7.15713 0.502888 8.49714 1.00731 9.71492C1.51173 10.9327 2.36594 11.9736 3.46191 12.7059C4.55789 13.4382 5.8464 13.829 7.16452 13.829C8.64459 13.8309 10.0823 13.335 11.2465 12.4212L14.0706 15.2536C14.1481 15.3317 14.2402 15.3936 14.3417 15.4359C14.4432 15.4782 14.5521 15.5 14.6621 15.5C14.7721 15.5 14.881 15.4782 14.9825 15.4359C15.084 15.3936 15.1761 15.3317 15.2536 15.2536C15.3317 15.1761 15.3936 15.084 15.4359 14.9825C15.4782 14.881 15.5 14.7721 15.5 14.6621C15.5 14.5521 15.4782 14.4432 15.4359 14.3417C15.3936 14.2402 15.3317 14.1481 15.2536 14.0706ZM2.16613 7.16452C2.16613 6.17593 2.45928 5.20955 3.00851 4.38757C3.55774 3.56558 4.33838 2.92493 5.25172 2.54661C6.16506 2.1683 7.17007 2.06931 8.13966 2.26218C9.10925 2.45504 9.99988 2.93109 10.6989 3.63013C11.398 4.32916 11.874 5.21979 12.0669 6.18938C12.2597 7.15898 12.1607 8.16399 11.7824 9.07732C11.4041 9.99066 10.7635 10.7713 9.94148 11.3205C9.1195 11.8698 8.15311 12.1629 7.16452 12.1629C5.83887 12.1629 4.56751 11.6363 3.63013 10.6989C2.69275 9.76154 2.16613 8.49018 2.16613 7.16452Z" fill="white"/>
</svg>
